<svg xmlns="http://www.w3.org/2000/svg" width="335.058" height="75.476" viewBox="0 0 335.058 75.476">
  <g id="Group_21154" data-name="Group 21154" transform="translate(-248.907 -145.498)">
    <g id="Group_21156" data-name="Group 21156" transform="translate(248.907 145.498)">
      <g id="Group_21155" data-name="Group 21155">
        <rect id="Rectangle_115" data-name="Rectangle 115" width="284.964" height="9.244" transform="translate(50.094)" fill="#472234"/>
        <path id="Path_101899" data-name="Path 101899" d="M271.482,187.119l.083.08,4.186,4.168-4.17,1.771Z" transform="translate(-249.499 -146.589)" fill="#472234" fill-rule="evenodd"/>
        <path id="Path_101900" data-name="Path 101900" d="M277.015,192.546l.082.081,4.187,4.17-4.17,1.767Z" transform="translate(-249.644 -146.731)" fill="#472234" fill-rule="evenodd"/>
        <path id="Path_101901" data-name="Path 101901" d="M282.125,197.626l.08.079,4.186,4.17-4.17,1.769Z" transform="translate(-249.777 -146.865)" fill="#472234" fill-rule="evenodd"/>
        <path id="Path_101902" data-name="Path 101902" d="M271.606,194.825l.08.079,4.188,4.17-4.171,1.769Z" transform="translate(-249.502 -146.791)" fill="#472234" fill-rule="evenodd"/>
        <path id="Path_101903" data-name="Path 101903" d="M271.772,201.99l.081.079,4.186,4.167-4.171,1.77Z" transform="translate(-249.506 -146.979)" fill="#472234" fill-rule="evenodd"/>
        <path id="Path_101904" data-name="Path 101904" d="M276.9,199.83l.08.079,4.186,4.17-4.171,1.769Z" transform="translate(-249.64 -146.922)" fill="#472234" fill-rule="evenodd"/>
        <path id="Path_101905" data-name="Path 101905" d="M270.51,184.907v-.113l-.041-5.909-4.185,1.735Z" transform="translate(-249.362 -146.373)" fill="#472234" fill-rule="evenodd"/>
        <path id="Path_101906" data-name="Path 101906" d="M270.515,177.159v-.115l-.041-5.909-4.184,1.735Z" transform="translate(-249.362 -146.17)" fill="#472234" fill-rule="evenodd"/>
        <path id="Path_101907" data-name="Path 101907" d="M270.472,169.953v-.115l-.04-5.909-4.184,1.737Z" transform="translate(-249.361 -145.981)" fill="#472234" fill-rule="evenodd"/>
        <path id="Path_101908" data-name="Path 101908" d="M265.1,179.421v-.115l-.04-5.909-4.185,1.735Z" transform="translate(-249.22 -146.23)" fill="#472234" fill-rule="evenodd"/>
        <path id="Path_101909" data-name="Path 101909" d="M260.1,174.283v-.115l-.041-5.907-4.184,1.734Z" transform="translate(-249.09 -146.095)" fill="#472234" fill-rule="evenodd"/>
        <path id="Path_101910" data-name="Path 101910" d="M265.236,172.139l0-.113-.041-5.909-4.184,1.735Z" transform="translate(-249.224 -146.039)" fill="#472234" fill-rule="evenodd"/>
        <path id="Path_101911" data-name="Path 101911" d="M272.127,185.571l.08-.083,4.169-4.184,1.77,4.17Z" transform="translate(-249.515 -146.437)" fill="#472234" fill-rule="evenodd"/>
        <path id="Path_101912" data-name="Path 101912" d="M277.554,180.038l.08-.081,4.17-4.186,1.768,4.17Z" transform="translate(-249.658 -146.292)" fill="#472234" fill-rule="evenodd"/>
        <path id="Path_101913" data-name="Path 101913" d="M282.635,174.928l.08-.081,4.169-4.186,1.768,4.17Z" transform="translate(-249.791 -146.158)" fill="#472234" fill-rule="evenodd"/>
        <path id="Path_101914" data-name="Path 101914" d="M279.833,185.448l.08-.081,4.169-4.186,1.77,4.17Z" transform="translate(-249.717 -146.434)" fill="#472234" fill-rule="evenodd"/>
        <path id="Path_101915" data-name="Path 101915" d="M287,185.281l.079-.081,4.168-4.186,1.77,4.171Z" transform="translate(-249.905 -146.429)" fill="#472234" fill-rule="evenodd"/>
        <path id="Path_101916" data-name="Path 101916" d="M284.838,180.157l.08-.081,4.169-4.186,1.769,4.171Z" transform="translate(-249.849 -146.295)" fill="#472234" fill-rule="evenodd"/>
        <path id="Path_101917" data-name="Path 101917" d="M269.916,186.544H269.8l-5.906.041,1.735,4.184Z" transform="translate(-249.3 -146.574)" fill="#472234" fill-rule="evenodd"/>
        <path id="Path_101918" data-name="Path 101918" d="M262.168,186.539l-.116,0-5.908.041,1.737,4.183Z" transform="translate(-249.097 -146.574)" fill="#472234" fill-rule="evenodd"/>
        <path id="Path_101919" data-name="Path 101919" d="M254.961,186.583h-.113l-5.909.042,1.736,4.182Z" transform="translate(-248.908 -146.575)" fill="#472234" fill-rule="evenodd"/>
        <path id="Path_101920" data-name="Path 101920" d="M264.429,191.956h-.114l-5.909.042,1.736,4.186Z" transform="translate(-249.156 -146.716)" fill="#472234" fill-rule="evenodd"/>
        <path id="Path_101921" data-name="Path 101921" d="M259.29,196.951h-.114l-5.908.04L255,201.175Z" transform="translate(-249.021 -146.847)" fill="#472234" fill-rule="evenodd"/>
        <path id="Path_101922" data-name="Path 101922" d="M257.147,191.818h-.114l-5.908.042,1.735,4.184Z" transform="translate(-248.965 -146.712)" fill="#472234" fill-rule="evenodd"/>
        <path id="Path_101923" data-name="Path 101923" d="M271.592,184.83l0-.115-.012-5.907,4.2,1.7Z" transform="translate(-249.501 -146.371)" fill="#472234" fill-rule="evenodd"/>
        <path id="Path_101924" data-name="Path 101924" d="M271.518,177.082v-.115l-.011-5.909,4.2,1.7Z" transform="translate(-249.499 -146.168)" fill="#472234" fill-rule="evenodd"/>
        <path id="Path_101925" data-name="Path 101925" d="M271.5,169.875v-.113l-.012-5.909,4.2,1.7Z" transform="translate(-249.499 -145.979)" fill="#472234" fill-rule="evenodd"/>
        <path id="Path_101926" data-name="Path 101926" d="M276.954,179.3v-.115l-.012-5.909,4.2,1.7Z" transform="translate(-249.642 -146.226)" fill="#472234" fill-rule="evenodd"/>
        <path id="Path_101927" data-name="Path 101927" d="M281.9,174.113V174l-.013-5.909,4.2,1.7Z" transform="translate(-249.771 -146.09)" fill="#472234" fill-rule="evenodd"/>
        <path id="Path_101928" data-name="Path 101928" d="M276.752,172.015V171.9l-.012-5.909,4.2,1.7Z" transform="translate(-249.636 -146.035)" fill="#472234" fill-rule="evenodd"/>
        <path id="Path_101929" data-name="Path 101929" d="M270.638,187.049l-.081.083-4.149,4.205,4.186,1.732Z" transform="translate(-249.366 -146.587)" fill="#472234" fill-rule="evenodd"/>
        <path id="Path_101930" data-name="Path 101930" d="M265.155,192.525l-.081.083-4.149,4.207,4.187,1.731Z" transform="translate(-249.222 -146.731)" fill="#472234" fill-rule="evenodd"/>
        <path id="Path_101931" data-name="Path 101931" d="M260.089,197.652l-.079.079-4.15,4.208,4.187,1.729Z" transform="translate(-249.089 -146.865)" fill="#472234" fill-rule="evenodd"/>
        <path id="Path_101932" data-name="Path 101932" d="M270.584,194.755l-.08.081-4.149,4.208,4.187,1.731Z" transform="translate(-249.364 -146.789)" fill="#472234" fill-rule="evenodd"/>
        <path id="Path_101933" data-name="Path 101933" d="M270.481,201.921l-.08.079-4.149,4.207,4.187,1.732Z" transform="translate(-249.361 -146.977)" fill="#472234" fill-rule="evenodd"/>
        <path id="Path_101934" data-name="Path 101934" d="M265.338,199.809l-.079.079L261.11,204.1l4.186,1.731Z" transform="translate(-249.227 -146.922)" fill="#472234" fill-rule="evenodd"/>
        <path id="Path_101935" data-name="Path 101935" d="M269.8,185.563l-.081-.081-4.206-4.147-1.732,4.186Z" transform="translate(-249.297 -146.438)" fill="#472234" fill-rule="evenodd"/>
        <path id="Path_101936" data-name="Path 101936" d="M264.322,180.081,264.24,180l-4.207-4.149-1.731,4.186Z" transform="translate(-249.153 -146.294)" fill="#472234" fill-rule="evenodd"/>
        <path id="Path_101937" data-name="Path 101937" d="M259.2,175.016l-.08-.08-4.207-4.149-1.732,4.186Z" transform="translate(-249.019 -146.161)" fill="#472234" fill-rule="evenodd"/>
        <path id="Path_101938" data-name="Path 101938" d="M262.092,185.511l-.081-.081-4.208-4.149-1.731,4.188Z" transform="translate(-249.095 -146.436)" fill="#472234" fill-rule="evenodd"/>
        <path id="Path_101939" data-name="Path 101939" d="M254.925,185.408l-.08-.079-4.206-4.149-1.732,4.186Z" transform="translate(-248.907 -146.433)" fill="#472234" fill-rule="evenodd"/>
        <path id="Path_101940" data-name="Path 101940" d="M257.038,180.264l-.081-.079-4.207-4.149-1.732,4.186Z" transform="translate(-248.962 -146.299)" fill="#472234" fill-rule="evenodd"/>
        <path id="Path_101941" data-name="Path 101941" d="M272.015,186.519l.116,0,5.907-.011-1.7,4.2Z" transform="translate(-249.512 -146.573)" fill="#472234" fill-rule="evenodd"/>
        <path id="Path_101942" data-name="Path 101942" d="M279.764,186.445h.115l5.908-.011-1.7,4.2Z" transform="translate(-249.716 -146.571)" fill="#472234" fill-rule="evenodd"/>
        <path id="Path_101943" data-name="Path 101943" d="M286.971,186.424h.112l5.91-.012-1.7,4.2Z" transform="translate(-249.904 -146.571)" fill="#472234" fill-rule="evenodd"/>
        <path id="Path_101944" data-name="Path 101944" d="M277.551,191.882h.115l5.909-.012-1.7,4.2Z" transform="translate(-249.658 -146.714)" fill="#472234" fill-rule="evenodd"/>
        <path id="Path_101945" data-name="Path 101945" d="M282.735,196.829h.114l5.908-.013-1.7,4.2Z" transform="translate(-249.793 -146.843)" fill="#472234" fill-rule="evenodd"/>
        <path id="Path_101946" data-name="Path 101946" d="M284.832,191.679h.114l5.908-.013-1.7,4.2Z" transform="translate(-249.848 -146.708)" fill="#472234" fill-rule="evenodd"/>
        <path id="Path_101947" data-name="Path 101947" d="M309.627,174.3c0-5.564,0-6.564-.072-7.706-.071-1.213-.356-1.783-1.534-2.033a6.612,6.612,0,0,0-1.213-.106c-.143,0-.285-.072-.285-.215,0-.213.179-.285.571-.285,1.6,0,3.71.107,3.924.107.321,0,2.391-.107,3.46-.107.393,0,.572.072.572.285,0,.143-.143.215-.285.215a5.2,5.2,0,0,0-.892.106c-.963.178-1.248.785-1.32,2.033-.07,1.141-.07,2.141-.07,7.706v2.14h.142c.607-.677,7.064-7.241,8.347-8.633,1-1.035,1.927-1.962,1.927-2.568a.7.7,0,0,0-.465-.751c-.178-.071-.32-.141-.32-.284,0-.178.178-.25.427-.25.714,0,1.819.107,2.676.107.178,0,2.532-.107,3.425-.107.392,0,.535.072.535.25s-.071.25-.356.25a5.289,5.289,0,0,0-2,.5c-1.463.644-2.247,1.535-3.852,3.068-.892.857-7.1,6.921-7.849,7.813.928,1.035,8.348,8.7,9.81,10.06,3,2.783,3.6,3.354,5.316,4.067a6.571,6.571,0,0,0,2.212.465c.249,0,.463.07.463.213,0,.178-.178.284-.784.284h-1.819c-1,0-1.677,0-2.462-.071-1.891-.178-2.783-.963-4.318-2.175-1.6-1.319-9.167-9.489-10.88-11.594h-.177v3.495c0,3.425,0,6.243.177,7.744.107,1.032.321,1.818,1.392,1.961a12.317,12.317,0,0,0,1.392.143c.214,0,.285.107.285.213,0,.178-.179.284-.571.284-1.748,0-3.817-.106-4.1-.106s-2.356.106-3.425.106c-.392,0-.572-.071-.572-.284,0-.106.072-.213.286-.213a5.538,5.538,0,0,0,1.07-.143c.713-.143.891-.929,1.034-1.961.179-1.5.179-4.319.179-7.744Z" transform="translate(-250.417 -145.982)" fill="#1a1718"/>
        <path id="Path_101948" data-name="Path 101948" d="M363.688,186.346c.142,1.285.392,3.284,1.926,3.782a7.732,7.732,0,0,0,2.319.321c.178,0,.285.035.285.178,0,.213-.32.321-.749.321-.785,0-4.637-.037-5.958-.143-.821-.072-1-.178-1-.356,0-.143.07-.213.249-.25s.213-.642.143-1.284L359.193,170.4h-.107l-8.741,18.55c-.749,1.571-.856,1.89-1.177,1.89-.249,0-.428-.356-1.105-1.64-.928-1.748-4-7.92-4.175-8.277-.32-.643-4.316-9.2-4.708-10.166h-.143L337.61,187.31c-.036.572-.036,1.212-.036,1.819a1.144,1.144,0,0,0,.927,1.107,6.688,6.688,0,0,0,1.355.178c.143,0,.286.07.286.178,0,.248-.214.319-.643.319-1.319,0-3.032-.106-3.317-.106-.322,0-2.034.106-3,.106-.356,0-.606-.071-.606-.319,0-.108.178-.178.356-.178a4.544,4.544,0,0,0,1.07-.108c1.177-.213,1.283-1.6,1.427-2.96L338,164.086c.035-.393.178-.643.392-.643s.356.143.535.535l10.917,22.44,10.488-22.4c.143-.322.285-.572.536-.572s.356.286.427.963Z" transform="translate(-251.1 -145.969)" fill="#1a1718"/>
        <path id="Path_101949" data-name="Path 101949" d="M372.956,187.559A13.664,13.664,0,0,1,368.639,177a14.248,14.248,0,0,1,4-9.74c2.141-2.139,5.387-3.817,10.881-3.817a30.654,30.654,0,0,1,5.173.428,30.8,30.8,0,0,0,3.638.535c.392.037.465.178.465.393,0,.284-.107.713-.179,2-.071,1.176-.071,3.138-.106,3.673s-.107.75-.321.75c-.249,0-.285-.25-.285-.75a4.937,4.937,0,0,0-1.5-3.638c-1.248-1.07-3.994-2.033-7.135-2.033-4.744,0-6.956,1.392-8.205,2.6-2.6,2.5-3.211,5.672-3.211,9.311a12.883,12.883,0,0,0,12.878,13.056c2.676,0,4.78-.319,6.208-1.783a6.808,6.808,0,0,0,1.32-3c.07-.393.142-.536.355-.536.179,0,.25.25.25.536a36.869,36.869,0,0,1-.785,4.566c-.214.679-.285.749-.927,1.035a20.71,20.71,0,0,1-6.422.82c-5.351,0-8.953-1.319-11.772-3.853" transform="translate(-252.045 -145.969)" fill="#1a1718"/>
        <path id="Path_101950" data-name="Path 101950" d="M409.585,180.566c0,3.425,0,6.243.178,7.744.106,1.032.32,1.818,1.391,1.961a15.652,15.652,0,0,0,1.606.143c.214,0,.284.107.284.213,0,.178-.178.284-.57.284-1.962,0-4.21-.106-4.388-.106s-2.427.106-3.5.106c-.392,0-.572-.071-.572-.284,0-.106.072-.213.285-.213a5.528,5.528,0,0,0,1.07-.143c.714-.143.892-.929,1.035-1.961.178-1.5.178-4.319.178-7.744V165.477l-5.28.07c-2.211.037-3.068.286-3.639,1.141a6.336,6.336,0,0,0-.607,1.107c-.106.284-.213.356-.356.356-.107,0-.178-.106-.178-.321,0-.357.714-3.425.785-3.71.071-.213.214-.678.356-.678a6.7,6.7,0,0,0,1.57.428c1.035.106,2.39.178,2.818.178h13.378a14.354,14.354,0,0,0,2.534-.178c.535-.072.856-.179,1-.179.178,0,.178.215.178.428,0,1.07-.107,3.532-.107,3.925,0,.319-.106.463-.249.463-.179,0-.249-.107-.285-.607l-.036-.391c-.106-1.07-.963-1.891-4.388-1.963l-4.494-.07Z" transform="translate(-252.776 -145.969)" fill="#1a1718"/>
        <g id="Group_21154-2" data-name="Group 21154" transform="translate(49.898 0.001)">
          <rect id="Rectangle_116" data-name="Rectangle 116" width="0.487" height="75.284" fill="#1a1718"/>
        </g>
      </g>
    </g>
    <g id="Group_21157" data-name="Group 21157" transform="translate(303.902 193.974)">
      <path id="Path_101951" data-name="Path 101951" d="M308.4,199.426c0-2.071,0-2.453-.027-2.888-.027-.464-.163-.7-.461-.763a1.926,1.926,0,0,0-.489-.055c-.135,0-.217-.027-.217-.136,0-.082.109-.109.326-.109.515,0,1.37.041,1.764.041.339,0,1.139-.041,1.654-.041.176,0,.285.027.285.109,0,.109-.082.136-.217.136a2.275,2.275,0,0,0-.407.041c-.366.068-.475.3-.5.777-.026.435-.026.817-.026,2.888v2.4c0,1.321,0,2.4.054,2.984.041.368.135.613.542.668a5.709,5.709,0,0,0,.692.055c.149,0,.217.041.217.109,0,.1-.108.136-.258.136-.895,0-1.75-.041-2.116-.041-.312,0-1.167.041-1.709.041-.176,0-.272-.041-.272-.136,0-.068.055-.109.217-.109a2.2,2.2,0,0,0,.488-.055c.272-.055.353-.286.393-.681.068-.573.068-1.65.068-2.971Z" transform="translate(-305.43 -195.284)" fill="#1a1718"/>
      <path id="Path_101952" data-name="Path 101952" d="M314.883,204.23c.027.9.177,1.172.407,1.254a2.018,2.018,0,0,0,.624.082c.135,0,.2.055.2.123,0,.1-.108.123-.272.123-.773,0-1.329-.041-1.546-.041-.108,0-.678.041-1.288.041-.163,0-.272-.014-.272-.123,0-.068.082-.123.19-.123a2.435,2.435,0,0,0,.542-.055c.313-.082.353-.394.367-1.4l.108-6.867c0-.233.081-.4.2-.4.149,0,.312.178.515.383.15.149,1.94,1.988,3.677,3.692.814.8,2.4,2.439,2.578,2.6h.054l-.122-5.15c-.014-.709-.122-.913-.407-1.022a2.021,2.021,0,0,0-.624-.067c-.149,0-.19-.055-.19-.123,0-.1.122-.11.3-.11.624,0,1.261.028,1.519.028.135,0,.583-.028,1.167-.028.163,0,.272.015.272.11,0,.068-.068.123-.2.123a1.2,1.2,0,0,0-.366.041c-.326.094-.421.3-.434.953l-.135,7.3c0,.259-.1.368-.191.368a.706.706,0,0,1-.488-.245c-.746-.7-2.239-2.126-3.487-3.339-1.3-1.253-2.563-2.657-2.794-2.861h-.041Z" transform="translate(-305.575 -195.32)" fill="#1a1718"/>
      <path id="Path_101953" data-name="Path 101953" d="M325.22,205.663c-.19-.082-.231-.136-.231-.4,0-.627.055-1.349.068-1.54s.055-.3.149-.3.122.109.122.191a2.158,2.158,0,0,0,.109.6,1.844,1.844,0,0,0,1.9,1.144,1.5,1.5,0,0,0,1.655-1.471c0-.5-.122-1.008-1.18-1.635l-.692-.409c-1.41-.831-1.872-1.608-1.872-2.63,0-1.417,1.357-2.33,3.012-2.33a7.028,7.028,0,0,1,1.7.192c.109.027.163.068.163.15,0,.149-.041.476-.041,1.39,0,.245-.054.368-.149.368s-.122-.069-.122-.2a1.307,1.307,0,0,0-.313-.762,1.6,1.6,0,0,0-1.329-.546c-.854,0-1.627.45-1.627,1.24,0,.519.189.928,1.261,1.527l.489.273c1.574.873,2.061,1.758,2.061,2.806a2.476,2.476,0,0,1-1.194,2.167,3.466,3.466,0,0,1-1.994.477A5.051,5.051,0,0,1,325.22,205.663Z" transform="translate(-305.896 -195.321)" fill="#1a1718"/>
      <path id="Path_101954" data-name="Path 101954" d="M334.959,197.76l-1.777.041c-.692.015-.977.1-1.153.354a1.322,1.322,0,0,0-.2.4c-.027.1-.055.15-.136.15s-.108-.068-.108-.191c0-.191.23-1.308.257-1.4.028-.15.068-.219.136-.219.094,0,.217.1.515.137a11.142,11.142,0,0,0,1.194.055h4.843a5.377,5.377,0,0,0,.814-.055c.191-.027.285-.056.326-.056.081,0,.094.069.094.245,0,.245-.026,1.1-.026,1.4-.015.123-.041.191-.109.191-.094,0-.122-.055-.135-.232l-.014-.123c-.027-.3-.34-.654-1.411-.668l-1.506-.027v4.687c0,1.063.015,1.977.068,2.48.041.327.109.545.462.6a4.444,4.444,0,0,0,.611.041c.135,0,.19.068.19.123,0,.082-.1.123-.231.123-.787,0-1.587-.041-1.926-.041-.272,0-1.086.041-1.56.041-.15,0-.231-.041-.231-.123,0-.055.04-.123.19-.123a1.678,1.678,0,0,0,.421-.041c.243-.055.312-.273.353-.613.055-.491.055-1.4.055-2.468Z" transform="translate(-306.069 -195.321)" fill="#1a1718"/>
      <path id="Path_101955" data-name="Path 101955" d="M342.213,200.408c0-1.758,0-2.085-.014-2.453-.027-.4-.149-.532-.407-.613a1.514,1.514,0,0,0-.434-.054c-.122,0-.19-.028-.19-.136,0-.068.1-.1.285-.1.447,0,1.261.028,1.6.028.3,0,1.072-.028,1.534-.028.149,0,.244.028.244.1,0,.108-.068.136-.19.136a1.583,1.583,0,0,0-.353.041c-.326.054-.422.217-.448.626-.027.368-.027.7-.027,2.453v2.043c0,1.118,0,2.044.054,2.535.041.314.123.491.475.545a4.443,4.443,0,0,0,.611.041c.135,0,.19.068.19.123,0,.082-.094.123-.231.123-.787,0-1.6-.041-1.926-.041-.272,0-1.086.041-1.56.041-.149,0-.231-.041-.231-.123,0-.055.041-.123.19-.123a1.754,1.754,0,0,0,.421-.041c.244-.055.313-.218.353-.559.055-.477.055-1.4.055-2.521Z" transform="translate(-306.32 -195.326)" fill="#1a1718"/>
      <path id="Path_101956" data-name="Path 101956" d="M349.452,197.76l-1.777.041c-.692.015-.977.1-1.153.354a1.345,1.345,0,0,0-.2.4c-.027.1-.055.15-.135.15s-.109-.068-.109-.191c0-.191.231-1.308.257-1.4.028-.15.068-.219.136-.219.094,0,.217.1.515.137a11.155,11.155,0,0,0,1.194.055h4.844a5.372,5.372,0,0,0,.813-.055c.191-.027.285-.056.326-.056.081,0,.1.069.1.245,0,.245-.027,1.1-.027,1.4-.014.123-.041.191-.109.191-.094,0-.122-.055-.135-.232l-.014-.123c-.027-.3-.339-.654-1.411-.668l-1.505-.027v4.687c0,1.063.014,1.977.067,2.48.041.327.109.545.462.6a4.443,4.443,0,0,0,.611.041c.135,0,.19.068.19.123,0,.082-.094.123-.231.123-.787,0-1.587-.041-1.926-.041-.272,0-1.086.041-1.56.041-.149,0-.231-.041-.231-.123,0-.055.041-.123.19-.123a1.678,1.678,0,0,0,.421-.041c.243-.055.312-.273.353-.613.055-.491.055-1.4.055-2.468Z" transform="translate(-306.448 -195.321)" fill="#1a1718"/>
      <path id="Path_101957" data-name="Path 101957" d="M356.173,200.408c0-1.758.014-2.085-.014-2.453-.027-.409-.136-.518-.515-.626a2.086,2.086,0,0,0-.462-.041c-.136,0-.2-.041-.2-.123s.082-.11.258-.11c.637,0,1.437.028,1.791.028.3,0,1.1-.028,1.533-.028.176,0,.257.028.257.11s-.067.123-.19.123a1.6,1.6,0,0,0-.353.041c-.313.054-.407.217-.434.626-.026.368-.026.7-.026,2.453v1.621c0,1.69.325,2.343.909,2.807a2.292,2.292,0,0,0,1.505.463,2.269,2.269,0,0,0,1.6-.613c.665-.626.692-1.634.692-2.82v-1.458c0-1.758-.015-2.085-.027-2.453-.027-.4-.123-.518-.5-.626a1.978,1.978,0,0,0-.434-.041c-.135,0-.2-.041-.2-.123s.082-.11.244-.11c.611,0,1.411.028,1.425.028.135,0,.936-.028,1.4-.028.163,0,.244.028.244.11s-.068.123-.2.123a1.6,1.6,0,0,0-.353.041c-.325.054-.406.217-.433.626-.014.368-.027.7-.027,2.453v1.24a4.287,4.287,0,0,1-1.14,3.488,3.7,3.7,0,0,1-2.522.832,4.113,4.113,0,0,1-2.728-.791,3.726,3.726,0,0,1-1.085-3.066Z" transform="translate(-306.682 -195.326)" fill="#1a1718"/>
      <path id="Path_101958" data-name="Path 101958" d="M368.864,197.76l-1.777.041c-.692.015-.977.1-1.153.354a1.346,1.346,0,0,0-.2.4c-.027.1-.055.15-.135.15s-.109-.068-.109-.191c0-.191.231-1.308.257-1.4.028-.15.068-.219.136-.219.094,0,.217.1.515.137a11.162,11.162,0,0,0,1.195.055h4.843a5.4,5.4,0,0,0,.814-.055c.19-.027.284-.056.325-.056.082,0,.1.069.1.245,0,.245-.027,1.1-.027,1.4-.014.123-.041.191-.109.191-.094,0-.122-.055-.135-.232l-.014-.123c-.027-.3-.339-.654-1.411-.668l-1.505-.027v4.687c0,1.063.014,1.977.067,2.48.041.327.109.545.462.6a4.444,4.444,0,0,0,.611.041c.135,0,.19.068.19.123,0,.082-.094.123-.231.123-.787,0-1.587-.041-1.926-.041-.272,0-1.086.041-1.56.041-.149,0-.231-.041-.231-.123,0-.055.041-.123.19-.123a1.678,1.678,0,0,0,.421-.041c.244-.055.312-.273.353-.613.055-.491.055-1.4.055-2.468Z" transform="translate(-306.957 -195.321)" fill="#1a1718"/>
      <path id="Path_101959" data-name="Path 101959" d="M376.113,200.405c0-1.758,0-2.085-.014-2.453-.027-.4-.135-.518-.515-.626a2.137,2.137,0,0,0-.475-.041c-.122,0-.2-.041-.2-.123s.1-.11.272-.11c.624,0,1.384.028,1.723.028.38,0,3.026.013,3.256,0a4.668,4.668,0,0,0,.5-.069,1.572,1.572,0,0,1,.19-.054c.068,0,.082.054.082.109a5.135,5.135,0,0,0-.1.75c-.014.123-.04.626-.067.762-.014.055-.041.191-.136.191s-.094-.056-.094-.15a1.088,1.088,0,0,0-.082-.423c-.094-.2-.19-.368-.787-.422-.2-.028-1.627-.056-1.872-.056-.055,0-.082.041-.082.109v2.862c0,.068.014.123.082.123.271,0,1.818,0,2.089-.028s.462-.054.57-.176c.1-.082.136-.15.19-.15a.11.11,0,0,1,.1.122c0,.069-.027.259-.1.846-.027.231-.054.694-.054.776s-.015.259-.123.259c-.081,0-.108-.041-.108-.1-.014-.122-.014-.272-.041-.422-.067-.232-.217-.409-.665-.45-.216-.026-1.573-.055-1.872-.055-.055,0-.068.055-.068.123v.926c0,.4-.014,1.377,0,1.718.027.791.393.967,1.615.967a3.2,3.2,0,0,0,1.126-.15c.3-.136.434-.382.516-.858.027-.123.054-.177.135-.177s.108.15.108.273a7.844,7.844,0,0,1-.163,1.281c-.081.3-.19.3-.637.3-.9,0-1.615-.014-2.2-.041s-1.031-.027-1.384-.027c-.136,0-.394.014-.679.014s-.583.027-.828.027c-.149,0-.23-.041-.23-.123,0-.055.04-.123.189-.123a1.757,1.757,0,0,0,.422-.041c.243-.055.312-.273.352-.613.055-.491.055-1.4.055-2.468Z" transform="translate(-307.204 -195.323)" fill="#1a1718"/>
      <path id="Path_101960" data-name="Path 101960" d="M387.016,201.426c0-1.977,1.384-4.539,5.006-4.539,3.011,0,4.884,1.677,4.884,4.334a4.67,4.67,0,0,1-5.006,4.741A4.51,4.51,0,0,1,387.016,201.426Zm8.113.217c0-2.562-1.534-4.143-3.46-4.143-1.329,0-2.889.709-2.889,3.57,0,2.385,1.357,4.265,3.609,4.265C393.229,205.336,395.129,204.94,395.129,201.643Z" transform="translate(-307.522 -195.321)" fill="#1a1718"/>
      <path id="Path_101961" data-name="Path 101961" d="M401.028,202.489c0,1.118.014,1.936.068,2.427.04.34.122.558.474.613a4.205,4.205,0,0,0,.583.041c.15,0,.2.068.2.123,0,.082-.081.123-.257.123-.761,0-1.6-.041-1.914-.041s-1.071.041-1.519.041c-.163,0-.244-.027-.244-.123,0-.055.041-.123.176-.123a1.742,1.742,0,0,0,.421-.041c.244-.055.313-.273.353-.613.055-.491.055-1.35.055-2.468v-2.043c0-1.758,0-2.085-.014-2.453-.027-.4-.135-.532-.515-.626a2.137,2.137,0,0,0-.475-.041c-.108,0-.2-.041-.2-.123s.1-.11.285-.11c.611,0,1.37.028,1.709.028.462,0,3.107.013,3.392,0a3.4,3.4,0,0,0,.488-.055c.068-.015.123-.068.191-.068.04,0,.081.054.081.109,0,.082-.054.218-.094.517-.014.123-.041.8-.055.941-.014.1-.041.231-.123.231s-.149-.054-.149-.19a.931.931,0,0,0-.067-.436.819.819,0,0,0-.76-.353l-1.982-.041c-.067,0-.108.026-.108.164V200.7c0,.069.014.11.082.11l1.668-.015c.2,0,.366,0,.543-.014a.61.61,0,0,0,.5-.2c.067-.067.094-.122.163-.122.041,0,.068.04.068.109s-.055.381-.1.749c-.027.233-.041.763-.041.845s-.013.259-.135.259c-.068,0-.108-.082-.108-.164a1.068,1.068,0,0,0-.082-.354.61.61,0,0,0-.57-.423c-.3-.027-1.71-.041-1.913-.041-.055,0-.082.014-.082.1Z" transform="translate(-307.815 -195.323)" fill="#1a1718"/>
      <path id="Path_101962" data-name="Path 101962" d="M411.784,199.423c0-2.071,0-2.453-.027-2.888-.027-.464-.135-.682-.583-.777a2.775,2.775,0,0,0-.53-.041c-.148,0-.23-.027-.23-.123s.094-.123.3-.123c.367,0,.76.015,1.1.015s.664.026.855.026c.433,0,3.133,0,3.391-.014a5.122,5.122,0,0,0,.583-.082,1.357,1.357,0,0,1,.217-.054c.068,0,.082.054.082.123a8.629,8.629,0,0,0-.109.885c-.014.136-.041.736-.067.9-.014.068-.041.15-.136.15s-.122-.068-.122-.19a1.459,1.459,0,0,0-.082-.491c-.094-.245-.23-.409-.909-.491-.231-.027-1.655-.054-1.926-.054-.068,0-.1.041-.1.135v3.447c0,.1.014.15.1.15.3,0,1.859,0,2.171-.027s.529-.068.651-.2c.1-.109.15-.176.217-.176s.1.026.1.108-.055.3-.109.994c-.013.274-.054.818-.054.913s0,.259-.123.259a.108.108,0,0,1-.122-.123,3.567,3.567,0,0,0-.055-.49c-.067-.274-.258-.478-.76-.532-.257-.028-1.6-.041-1.926-.041-.068,0-.082.054-.082.135v1.077c0,.463-.013,1.717,0,2.112.027.941.244,1.145,1.628,1.145a3.43,3.43,0,0,0,1.276-.164c.353-.164.515-.45.611-1.009.026-.15.054-.2.149-.2s.108.109.108.245a10.676,10.676,0,0,1-.176,1.512c-.1.354-.217.354-.732.354-1.018,0-1.764-.027-2.348-.041s-1-.041-1.41-.041c-.15,0-.448,0-.773.014s-.665.027-.937.027c-.176,0-.271-.041-.271-.136,0-.068.055-.109.217-.109a2.195,2.195,0,0,0,.488-.055c.272-.055.339-.354.393-.75.068-.573.068-1.649.068-2.9Z" transform="translate(-308.135 -195.281)" fill="#1a1718"/>
      <path id="Path_101963" data-name="Path 101963" d="M420.749,197.089c.027-.19.135-.3.231-.3.122,0,.2.054.366.368l3.2,6.458,3.2-6.54c.094-.192.2-.286.312-.286s.231.123.272.368l1.085,7.152c.109.724.217,1.036.583,1.145a2.355,2.355,0,0,0,.679.109c.109,0,.19.041.19.109,0,.1-.135.136-.313.136-.3,0-1.993-.055-2.469-.082-.285-.014-.353-.068-.353-.136s.055-.1.136-.123.094-.164.054-.491l-.664-5.014h-.041l-2.564,5.178c-.273.545-.34.654-.475.654s-.284-.232-.475-.586c-.284-.532-1.234-2.3-1.37-2.63-.1-.218-.8-1.676-1.194-2.479H421.1l-.57,4.524a3.8,3.8,0,0,0-.041.544c0,.218.163.3.366.341a2.058,2.058,0,0,0,.422.055c.108,0,.189.055.189.109,0,.109-.108.136-.284.136-.5,0-1.045-.041-1.262-.041s-.8.041-1.18.041c-.122,0-.217-.027-.217-.136,0-.055.068-.109.19-.109a2.161,2.161,0,0,0,.367-.027c.325-.041.434-.5.488-.886Z" transform="translate(-308.347 -195.319)" fill="#1a1718"/>
      <path id="Path_101964" data-name="Path 101964" d="M433.18,200.405c0-1.758,0-2.085-.014-2.453-.027-.4-.135-.518-.516-.626a2.122,2.122,0,0,0-.474-.041c-.123,0-.2-.041-.2-.123s.1-.11.271-.11c.624,0,1.384.028,1.724.028.38,0,3.025.013,3.256,0a4.64,4.64,0,0,0,.5-.069,1.585,1.585,0,0,1,.191-.054c.068,0,.082.054.082.109a4.977,4.977,0,0,0-.1.75c-.014.123-.041.626-.067.762-.015.055-.041.191-.136.191s-.1-.056-.1-.15a1.085,1.085,0,0,0-.081-.423c-.094-.2-.19-.368-.787-.422-.2-.028-1.628-.056-1.873-.056-.055,0-.081.041-.081.109v2.862c0,.068.014.123.081.123.272,0,1.818,0,2.089-.028s.462-.054.571-.176c.094-.082.135-.15.19-.15a.11.11,0,0,1,.094.122c0,.069-.026.259-.094.846-.027.231-.055.694-.055.776s-.014.259-.122.259c-.082,0-.108-.041-.108-.1-.015-.122-.015-.272-.041-.422-.068-.232-.217-.409-.665-.45-.217-.026-1.574-.055-1.873-.055-.054,0-.067.055-.067.123v.926c0,.4-.014,1.377,0,1.718.026.791.393.967,1.614.967a3.211,3.211,0,0,0,1.127-.15c.3-.136.434-.382.516-.858.026-.123.054-.177.134-.177s.109.15.109.273a7.841,7.841,0,0,1-.163,1.281c-.081.3-.191.3-.638.3-.895,0-1.615-.014-2.2-.041s-1.032-.027-1.384-.027c-.136,0-.394.014-.68.014s-.582.027-.827.027c-.15,0-.231-.041-.231-.123,0-.055.041-.123.19-.123a1.754,1.754,0,0,0,.421-.041c.243-.055.313-.273.353-.613.055-.491.055-1.4.055-2.468Z" transform="translate(-308.7 -195.323)" fill="#1a1718"/>
      <path id="Path_101965" data-name="Path 101965" d="M440.927,200.408c0-1.758,0-2.085-.014-2.453-.027-.4-.135-.518-.515-.626a2.137,2.137,0,0,0-.475-.041c-.123,0-.2-.041-.2-.123s.1-.11.272-.11c.623,0,1.383.028,1.627.028.407,0,1.493-.028,1.859-.028a4.176,4.176,0,0,1,2.266.491,2.032,2.032,0,0,1,.84,1.594c0,.859-.488,1.622-1.654,2.562,1.059,1.309,1.9,2.358,2.618,3.079a2.237,2.237,0,0,0,1.276.763,1.109,1.109,0,0,0,.285.027.138.138,0,0,1,.149.123c0,.1-.082.123-.231.123h-1.139a2.577,2.577,0,0,1-1.3-.232,5.432,5.432,0,0,1-1.628-1.7c-.474-.626-.977-1.4-1.126-1.58a.273.273,0,0,0-.217-.082l-1.071-.027a.086.086,0,0,0-.1.1v.163c0,1.077.015,1.977.068,2.468.04.34.094.558.462.613a4.493,4.493,0,0,0,.583.041.139.139,0,0,1,.149.123c0,.082-.1.123-.244.123-.691,0-1.683-.041-1.858-.041-.232,0-.991.041-1.466.041-.149,0-.23-.041-.23-.123,0-.055.04-.123.189-.123a1.748,1.748,0,0,0,.421-.041c.243-.055.313-.273.353-.613.055-.491.055-1.4.055-2.468Zm1.519.9c0,.123.027.164.108.2a3.263,3.263,0,0,0,.91.108,1.2,1.2,0,0,0,.841-.19,1.966,1.966,0,0,0,.773-1.718,1.816,1.816,0,0,0-1.818-2.057,4.2,4.2,0,0,0-.706.041c-.081.026-.108.067-.108.164Z" transform="translate(-308.903 -195.326)" fill="#1a1718"/>
      <path id="Path_101966" data-name="Path 101966" d="M457.7,205.037c0,.313,0,.326-.149.408a7.156,7.156,0,0,1-2.917.518c-2.93,0-5.521-1.335-5.521-4.537a4.29,4.29,0,0,1,2.089-3.789,5.955,5.955,0,0,1,3.215-.75,13.494,13.494,0,0,1,2.116.192,9.48,9.48,0,0,0,.95.123c.135.013.162.054.162.135a15.9,15.9,0,0,0-.081,1.908c0,.177-.068.259-.163.259s-.109-.055-.122-.149a1.553,1.553,0,0,0-.407-.954,3.692,3.692,0,0,0-2.592-.886,3.341,3.341,0,0,0-2.306.682,3.384,3.384,0,0,0-1.1,2.821,4.012,4.012,0,0,0,4.151,4.305,1.941,1.941,0,0,0,.84-.123.381.381,0,0,0,.232-.408v-1.063c0-.573,0-1.008-.014-1.363-.015-.394-.136-.517-.516-.626a2.133,2.133,0,0,0-.462-.041c-.108,0-.189-.055-.189-.123,0-.1.094-.108.257-.108.624,0,1.479.026,1.832.026.38,0,1-.026,1.4-.026.163,0,.244.013.244.108a.139.139,0,0,1-.15.123,1.636,1.636,0,0,0-.326.041c-.325.055-.447.218-.461.626-.014.355-.014.818-.014,1.391Z" transform="translate(-309.149 -195.321)" fill="#1a1718"/>
      <path id="Path_101967" data-name="Path 101967" d="M461.334,200.408c0-1.758,0-2.085-.014-2.453-.027-.4-.149-.532-.407-.613a1.518,1.518,0,0,0-.434-.054c-.122,0-.189-.028-.189-.136,0-.068.093-.1.284-.1.448,0,1.261.028,1.6.028.3,0,1.072-.028,1.533-.028.15,0,.244.028.244.1,0,.108-.067.136-.189.136a1.576,1.576,0,0,0-.353.041c-.326.054-.422.217-.448.626-.028.368-.028.7-.028,2.453v2.043c0,1.118,0,2.044.055,2.535.041.314.123.491.475.545a4.443,4.443,0,0,0,.611.041c.135,0,.19.068.19.123,0,.082-.094.123-.231.123-.787,0-1.6-.041-1.926-.041-.272,0-1.085.041-1.56.041-.149,0-.231-.041-.231-.123,0-.055.041-.123.19-.123a1.748,1.748,0,0,0,.421-.041c.244-.055.312-.218.353-.559.055-.477.055-1.4.055-2.521Z" transform="translate(-309.442 -195.326)" fill="#1a1718"/>
      <path id="Path_101968" data-name="Path 101968" d="M467.742,204.23c.027.9.176,1.172.407,1.254a2.018,2.018,0,0,0,.624.082c.135,0,.2.055.2.123,0,.1-.108.123-.272.123-.773,0-1.33-.041-1.546-.041-.109,0-.679.041-1.289.041-.163,0-.271-.014-.271-.123,0-.068.081-.123.189-.123a2.444,2.444,0,0,0,.543-.055c.312-.082.353-.394.366-1.4l.108-6.867c0-.233.082-.4.2-.4.15,0,.313.178.516.383.149.149,1.94,1.988,3.676,3.692.814.8,2.4,2.439,2.579,2.6h.054l-.123-5.15c-.013-.709-.122-.913-.406-1.022a2.021,2.021,0,0,0-.624-.067c-.15,0-.19-.055-.19-.123,0-.1.122-.11.3-.11.625,0,1.262.028,1.519.028.136,0,.584-.028,1.168-.028.163,0,.271.015.271.11,0,.068-.067.123-.2.123a1.2,1.2,0,0,0-.366.041c-.325.094-.421.3-.433.953l-.136,7.3c0,.259-.1.368-.19.368a.706.706,0,0,1-.488-.245c-.747-.7-2.239-2.126-3.487-3.339-1.3-1.253-2.564-2.657-2.794-2.861h-.041Z" transform="translate(-309.581 -195.32)" fill="#1a1718"/>
      <path id="Path_101969" data-name="Path 101969" d="M485.864,205.037c0,.313,0,.326-.149.408a7.156,7.156,0,0,1-2.917.518c-2.93,0-5.521-1.335-5.521-4.537a4.29,4.29,0,0,1,2.089-3.789,5.955,5.955,0,0,1,3.215-.75,13.494,13.494,0,0,1,2.116.192,9.48,9.48,0,0,0,.95.123c.135.013.163.054.163.135a15.709,15.709,0,0,0-.082,1.908c0,.177-.068.259-.163.259s-.109-.055-.122-.149a1.553,1.553,0,0,0-.407-.954,3.692,3.692,0,0,0-2.592-.886,3.342,3.342,0,0,0-2.306.682,3.384,3.384,0,0,0-1.1,2.821,4.012,4.012,0,0,0,4.151,4.305,1.941,1.941,0,0,0,.84-.123.381.381,0,0,0,.232-.408v-1.063c0-.573,0-1.008-.014-1.363-.015-.394-.136-.517-.516-.626a2.133,2.133,0,0,0-.462-.041c-.108,0-.189-.055-.189-.123,0-.1.094-.108.257-.108.624,0,1.479.026,1.832.026.38,0,1-.026,1.4-.026.163,0,.244.013.244.108a.139.139,0,0,1-.15.123,1.619,1.619,0,0,0-.325.041c-.325.055-.447.218-.462.626-.014.355-.014.818-.014,1.391Z" transform="translate(-309.887 -195.321)" fill="#1a1718"/>
      <path id="Path_101970" data-name="Path 101970" d="M495.734,196.233l-2.021.054c-.787.028-1.112.1-1.316.4a1.617,1.617,0,0,0-.232.477c-.026.108-.067.164-.149.164s-.122-.069-.122-.218c0-.219.258-1.459.285-1.568.04-.176.081-.258.163-.258a3.206,3.206,0,0,0,.583.164c.393.041.909.067,1.356.067h5.372a6.659,6.659,0,0,0,.936-.067,3.336,3.336,0,0,1,.366-.069c.094,0,.109.082.109.286,0,.286-.041,1.226-.041,1.581-.015.135-.041.217-.123.217-.108,0-.135-.068-.149-.272l-.014-.15c-.026-.354-.393-.736-1.6-.762l-1.709-.041v5.586c0,1.253,0,2.329.068,2.916.04.382.122.682.529.736a5.7,5.7,0,0,0,.692.055c.149,0,.216.041.216.109,0,.1-.108.136-.257.136-.9,0-1.75-.041-2.131-.041-.312,0-1.167.041-1.709.041-.176,0-.272-.041-.272-.136,0-.068.055-.109.218-.109a2.2,2.2,0,0,0,.488-.055c.271-.055.353-.354.393-.75.067-.573.067-1.649.067-2.9Z" transform="translate(-310.27 -195.279)" fill="#1a1718"/>
      <path id="Path_101971" data-name="Path 101971" d="M503.568,200.405c0-1.758,0-2.085-.014-2.453-.027-.4-.135-.518-.515-.626a2.137,2.137,0,0,0-.475-.041c-.122,0-.2-.041-.2-.123s.1-.11.272-.11c.624,0,1.384.028,1.723.028.38,0,3.026.013,3.255,0a4.732,4.732,0,0,0,.5-.069,1.525,1.525,0,0,1,.19-.054c.068,0,.081.054.081.109a5.231,5.231,0,0,0-.094.75c-.014.123-.04.626-.068.762-.013.055-.041.191-.135.191s-.094-.056-.094-.15a1.106,1.106,0,0,0-.082-.423c-.1-.2-.19-.368-.787-.422-.2-.028-1.627-.056-1.872-.056-.055,0-.082.041-.082.109v2.862c0,.068.014.123.082.123.271,0,1.818,0,2.089-.028s.462-.054.57-.176c.1-.082.136-.15.19-.15a.11.11,0,0,1,.1.122c0,.069-.027.259-.1.846-.027.231-.054.694-.054.776s-.015.259-.123.259c-.081,0-.109-.041-.109-.1-.013-.122-.013-.272-.041-.422-.067-.232-.216-.409-.664-.45-.217-.026-1.573-.055-1.872-.055-.055,0-.068.055-.068.123v.926c0,.4-.014,1.377,0,1.718.027.791.393.967,1.615.967a3.206,3.206,0,0,0,1.126-.15c.3-.136.434-.382.515-.858.028-.123.055-.177.136-.177s.108.15.108.273a7.841,7.841,0,0,1-.163,1.281c-.082.3-.19.3-.638.3-.895,0-1.614-.014-2.2-.041s-1.03-.027-1.384-.027c-.135,0-.393.014-.678.014s-.584.027-.828.027c-.149,0-.231-.041-.231-.123,0-.055.041-.123.19-.123a1.748,1.748,0,0,0,.421-.041c.244-.055.312-.273.353-.613.055-.491.055-1.4.055-2.468Z" transform="translate(-310.545 -195.323)" fill="#1a1718"/>
      <path id="Path_101972" data-name="Path 101972" d="M511.782,204.709a4.487,4.487,0,0,1-.1-6.6,5.366,5.366,0,0,1,3.785-1.227,12.335,12.335,0,0,1,1.736.123c.448.069.841.151,1.195.192.135.013.175.068.175.135,0,.1-.026.233-.054.642-.027.381-.027,1.021-.041,1.253-.014.164-.055.286-.163.286s-.122-.1-.122-.245a1.636,1.636,0,0,0-.462-1.077,3.366,3.366,0,0,0-2.306-.682,3.206,3.206,0,0,0-2.252.654,3.767,3.767,0,0,0-1.1,3.012,3.855,3.855,0,0,0,3.718,4.06c1.059,0,1.641-.082,2.116-.613a1.884,1.884,0,0,0,.407-.777c.027-.177.054-.232.149-.232s.136.109.136.2a10.352,10.352,0,0,1-.258,1.54.405.405,0,0,1-.312.341,6.979,6.979,0,0,1-2.158.259A6.115,6.115,0,0,1,511.782,204.709Z" transform="translate(-310.752 -195.321)" fill="#1a1718"/>
      <path id="Path_101973" data-name="Path 101973" d="M527.605,200.829c.028,0,.069-.013.069-.082V200.5c0-1.757-.015-2.179-.028-2.547-.026-.4-.134-.518-.515-.626a2.086,2.086,0,0,0-.462-.041c-.135,0-.2-.041-.2-.123s.082-.11.258-.11c.638,0,1.478.028,1.791.028.285,0,1.071-.028,1.533-.028.177,0,.258.028.258.11s-.081.123-.217.123a1.9,1.9,0,0,0-.353.041c-.313.054-.407.217-.434.626-.027.368-.027.7-.027,2.453v2.043c0,1.063,0,1.977.055,2.48.041.327.108.545.474.6a4.322,4.322,0,0,0,.611.041c.123,0,.19.068.19.123,0,.082-.094.123-.244.123-.773,0-1.559-.041-1.885-.041-.272,0-1.112.041-1.573.041-.164,0-.258-.041-.258-.123,0-.055.055-.123.189-.123a1.8,1.8,0,0,0,.435-.041c.244-.055.312-.273.352-.613.055-.491.055-1.377.055-2.439v-.885a.074.074,0,0,0-.069-.069h-4.5c-.041,0-.082.014-.082.069v.885c0,1.062.015,1.949.069,2.452.041.327.108.545.461.6a4.434,4.434,0,0,0,.611.041c.136,0,.19.068.19.123,0,.082-.094.123-.244.123-.772,0-1.6-.041-1.94-.041-.272,0-1.059.041-1.533.041-.149,0-.231-.041-.231-.123,0-.055.041-.123.19-.123a1.753,1.753,0,0,0,.421-.041c.244-.055.312-.273.353-.613.055-.491.055-1.4.055-2.468v-2.043c0-1.758,0-2.085-.014-2.453-.027-.4-.136-.518-.515-.626a2.141,2.141,0,0,0-.476-.041c-.122,0-.2-.041-.2-.123s.1-.11.258-.11c.638,0,1.425.028,1.751.028.284,0,1.113-.028,1.587-.028.163,0,.244.028.244.11s-.069.123-.217.123a1.661,1.661,0,0,0-.339.041c-.325.054-.422.217-.448.626-.028.368-.028.791-.028,2.547v.245c0,.069.041.082.082.082Z" transform="translate(-311.012 -195.326)" fill="#1a1718"/>
      <path id="Path_101974" data-name="Path 101974" d="M534.242,204.23c.027.9.176,1.172.407,1.254a2.018,2.018,0,0,0,.624.082c.136,0,.2.055.2.123,0,.1-.108.123-.271.123-.773,0-1.33-.041-1.547-.041-.109,0-.679.041-1.289.041-.163,0-.271-.014-.271-.123,0-.068.081-.123.19-.123a2.441,2.441,0,0,0,.542-.055c.312-.082.353-.394.366-1.4l.109-6.867c0-.233.081-.4.2-.4.149,0,.313.178.516.383.149.149,1.94,1.988,3.676,3.692.814.8,2.4,2.439,2.578,2.6h.054l-.122-5.15c-.014-.709-.123-.913-.407-1.022a2.015,2.015,0,0,0-.623-.067c-.15,0-.191-.055-.191-.123,0-.1.122-.11.3-.11.624,0,1.261.028,1.518.028.136,0,.584-.028,1.168-.028.163,0,.272.015.272.11,0,.068-.068.123-.2.123a1.207,1.207,0,0,0-.367.041c-.325.094-.421.3-.433.953l-.136,7.3c0,.259-.1.368-.189.368a.708.708,0,0,1-.489-.245c-.747-.7-2.239-2.126-3.486-3.339-1.3-1.253-2.564-2.657-2.795-2.861h-.041Z" transform="translate(-311.324 -195.32)" fill="#1a1718"/>
      <path id="Path_101975" data-name="Path 101975" d="M543.777,201.426c0-1.977,1.384-4.539,5.005-4.539,3.012,0,4.884,1.677,4.884,4.334a4.669,4.669,0,0,1-5.005,4.741A4.509,4.509,0,0,1,543.777,201.426Zm8.113.217c0-2.562-1.533-4.143-3.46-4.143-1.329,0-2.89.709-2.89,3.57,0,2.385,1.358,4.265,3.609,4.265C549.99,205.336,551.89,204.94,551.89,201.643Z" transform="translate(-311.63 -195.321)" fill="#1a1718"/>
      <path id="Path_101976" data-name="Path 101976" d="M557.792,202.451c0,1.486,0,2.222.257,2.439.2.177.665.245,1.587.245.638,0,1.1-.013,1.4-.327a1.4,1.4,0,0,0,.3-.694c.014-.109.041-.177.136-.177s.108.123.108.258a8.935,8.935,0,0,1-.176,1.336c-.081.259-.135.314-.76.314-.854,0-1.546-.014-2.144-.041s-1.1-.027-1.586-.027c-.135,0-.393.014-.679.014s-.582.027-.827.027c-.15,0-.232-.041-.232-.123,0-.055.041-.123.191-.123a1.739,1.739,0,0,0,.42-.041c.244-.055.313-.273.353-.613.054-.491.054-1.4.054-2.468v-2.043c0-1.758,0-2.085-.013-2.453-.028-.4-.136-.518-.516-.626a1.539,1.539,0,0,0-.393-.041c-.135,0-.2-.041-.2-.123s.082-.11.258-.11c.556,0,1.316.028,1.641.028.285,0,1.262-.028,1.724-.028.176,0,.257.028.257.11s-.067.123-.216.123a2.55,2.55,0,0,0-.462.041c-.325.054-.421.217-.448.626-.026.368-.026.7-.026,2.453Z" transform="translate(-311.926 -195.326)" fill="#1a1718"/>
      <path id="Path_101977" data-name="Path 101977" d="M562.3,201.426c0-1.977,1.384-4.539,5.006-4.539,3.012,0,4.884,1.677,4.884,4.334a4.67,4.67,0,0,1-5.006,4.741A4.51,4.51,0,0,1,562.3,201.426Zm8.113.217c0-2.562-1.533-4.143-3.459-4.143-1.33,0-2.89.709-2.89,3.57,0,2.385,1.357,4.265,3.609,4.265C568.51,205.336,570.41,204.94,570.41,201.643Z" transform="translate(-312.116 -195.321)" fill="#1a1718"/>
      <path id="Path_101978" data-name="Path 101978" d="M582.409,205.037c0,.313,0,.326-.149.408a7.159,7.159,0,0,1-2.917.518c-2.931,0-5.521-1.335-5.521-4.537a4.29,4.29,0,0,1,2.089-3.789,5.955,5.955,0,0,1,3.215-.75,13.507,13.507,0,0,1,2.116.192,9.495,9.495,0,0,0,.949.123c.135.013.163.054.163.135a15.715,15.715,0,0,0-.082,1.908c0,.177-.067.259-.162.259s-.109-.055-.122-.149a1.553,1.553,0,0,0-.407-.954,3.694,3.694,0,0,0-2.592-.886,3.341,3.341,0,0,0-2.306.682,3.384,3.384,0,0,0-1.1,2.821,4.012,4.012,0,0,0,4.152,4.305,1.943,1.943,0,0,0,.84-.123.382.382,0,0,0,.232-.408v-1.063c0-.573,0-1.008-.015-1.363-.014-.394-.135-.517-.515-.626a2.145,2.145,0,0,0-.462-.041c-.108,0-.19-.055-.19-.123,0-.1.094-.108.257-.108.625,0,1.479.026,1.832.026.381,0,1-.026,1.4-.026.163,0,.243.013.243.108a.138.138,0,0,1-.149.123,1.636,1.636,0,0,0-.326.041c-.325.055-.448.218-.461.626-.014.355-.014.818-.014,1.391Z" transform="translate(-312.418 -195.321)" fill="#1a1718"/>
      <path id="Path_101979" data-name="Path 101979" d="M587.29,202.806a2.316,2.316,0,0,0-.271-1.212c-.081-.178-1.709-2.726-2.131-3.339a2.612,2.612,0,0,0-.773-.818,1.177,1.177,0,0,0-.5-.149c-.094,0-.176-.041-.176-.123s.082-.11.231-.11c.2,0,1.1.028,1.493.028.257,0,.813-.028,1.355-.028.108,0,.177.028.177.11s-.082.094-.273.149c-.094.027-.163.082-.163.178a.9.9,0,0,0,.15.394c.216.354,1.777,3.066,1.981,3.393.149-.273,1.6-2.752,1.777-3.106a1.538,1.538,0,0,0,.176-.613c0-.108-.055-.218-.258-.259-.108-.026-.216-.041-.216-.135s.067-.11.2-.11c.394,0,.814.028,1.168.028.257,0,1.044-.028,1.275-.028.135,0,.217.028.217.1s-.1.136-.231.136a1.456,1.456,0,0,0-.516.135,1.607,1.607,0,0,0-.623.545,38.833,38.833,0,0,0-2.32,3.706,2.691,2.691,0,0,0-.149,1.158v.927c0,.191,0,.668.026,1.159.027.34.136.558.489.613a4.535,4.535,0,0,0,.6.041c.135,0,.2.068.2.123,0,.082-.1.123-.258.123-.746,0-1.546-.041-1.872-.041-.3,0-1.1.041-1.546.041-.164,0-.258-.027-.258-.123,0-.055.055-.123.189-.123a1.843,1.843,0,0,0,.422-.041c.243-.055.339-.273.366-.613.04-.491.04-.968.04-1.159Z" transform="translate(-312.67 -195.326)" fill="#1a1718"/>
      <path id="Path_101980" data-name="Path 101980" d="M308.6,219.692c-.068,0-.081.014-.109.082l-.638,1.553a2.111,2.111,0,0,0-.175.708c0,.2.108.327.474.327h.176c.15,0,.176.055.176.123,0,.1-.067.123-.189.123-.394,0-.95-.041-1.33-.041-.122,0-.76.041-1.384.041-.149,0-.217-.027-.217-.123a.118.118,0,0,1,.135-.123c.109,0,.244-.013.353-.013.542-.082.746-.437.99-1.022l3.12-7.289c.135-.327.231-.464.353-.464.176,0,.231.109.353.368.285.641,2.28,5.382,3.039,7.14.462,1.05.8,1.2,1.018,1.24a2.744,2.744,0,0,0,.448.041c.108,0,.163.041.163.123s-.068.123-.516.123c-.42,0-1.288,0-2.292-.027-.217-.014-.353-.014-.353-.1s.028-.109.15-.123a.182.182,0,0,0,.109-.258l-.923-2.33a.113.113,0,0,0-.122-.082Zm2.55-.641c.055,0,.068-.026.055-.067l-1.126-2.944c-.015-.041-.027-.109-.056-.109s-.054.068-.067.109L308.8,218.97c-.027.056,0,.082.041.082Z" transform="translate(-305.382 -195.758)" fill="#1a1718"/>
      <path id="Path_101981" data-name="Path 101981" d="M317.67,221.029c.027.9.176,1.171.407,1.253a1.989,1.989,0,0,0,.624.082c.135,0,.2.055.2.123,0,.1-.109.123-.272.123-.773,0-1.329-.041-1.546-.041-.108,0-.679.041-1.289.041-.163,0-.271-.013-.271-.123,0-.068.081-.123.19-.123a2.441,2.441,0,0,0,.542-.054c.313-.082.353-.4.366-1.4l.109-6.866c0-.233.081-.4.2-.4.149,0,.312.177.515.382.149.15,1.94,1.989,3.676,3.693.814.8,2.4,2.439,2.578,2.6h.055l-.123-5.15c-.013-.709-.122-.913-.406-1.022a2.021,2.021,0,0,0-.624-.067c-.149,0-.19-.056-.19-.123,0-.1.122-.11.3-.11.624,0,1.262.028,1.52.028.135,0,.583-.028,1.167-.028.163,0,.271.014.271.11,0,.067-.067.123-.2.123a1.208,1.208,0,0,0-.366.041c-.325.094-.421.3-.433.953l-.136,7.3c0,.26-.094.368-.19.368a.706.706,0,0,1-.488-.245c-.747-.694-2.239-2.126-3.487-3.338-1.3-1.253-2.564-2.657-2.795-2.861h-.041Z" transform="translate(-305.648 -195.76)" fill="#1a1718"/>
      <path id="Path_101982" data-name="Path 101982" d="M328.649,217.207c0-1.759,0-2.085-.015-2.453-.026-.4-.135-.518-.515-.626a2.126,2.126,0,0,0-.475-.041c-.122,0-.2-.041-.2-.123s.1-.11.272-.11c.624,0,1.384.028,1.723.028.367,0,1.221-.028,1.94-.028,1.493,0,3.5,0,4.8,1.322a4.064,4.064,0,0,1,1.126,2.943,4.5,4.5,0,0,1-1.3,3.229,5.551,5.551,0,0,1-4,1.362c-.434,0-.95-.041-1.425-.067s-.91-.069-1.207-.069c-.136,0-.393.014-.679.014s-.583.027-.827.027c-.15,0-.231-.041-.231-.123,0-.054.04-.123.19-.123a1.7,1.7,0,0,0,.421-.041c.243-.054.312-.272.352-.613.056-.49.056-1.4.056-2.467Zm1.6,1.281c0,1.226.014,2.111.027,2.343a2.113,2.113,0,0,0,.136.818c.149.218.623.464,1.56.464a3.757,3.757,0,0,0,2.6-.791,3.548,3.548,0,0,0,1.017-2.875,3.78,3.78,0,0,0-1.112-2.889,4.8,4.8,0,0,0-3.337-1.1,2.514,2.514,0,0,0-.732.082.2.2,0,0,0-.15.232c-.014.4-.014,1.349-.014,2.261Z" transform="translate(-305.96 -195.766)" fill="#1a1718"/>
      <path id="Path_101983" data-name="Path 101983" d="M345.169,212.319c.04-.231.122-.353.231-.353s.189.067.366.422l3.7,7.685,3.69-7.78c.109-.219.177-.327.3-.327s.2.135.244.422l1.234,8.421c.123.858.258,1.253.665,1.376a2.688,2.688,0,0,0,.84.135c.123,0,.218.014.218.1,0,.109-.164.15-.353.15-.339,0-2.211-.041-2.754-.082-.312-.027-.393-.068-.393-.15s.055-.108.15-.149.122-.2.067-.586l-.814-6h-.055l-2.957,6.186c-.312.641-.379.763-.5.763s-.257-.274-.475-.683c-.325-.626-1.4-2.711-1.56-3.092-.122-.286-.936-2-1.41-3.026h-.055l-.706,5.424a5.573,5.573,0,0,0-.041.64c0,.258.177.381.407.435a2.553,2.553,0,0,0,.571.068c.108,0,.2.028.2.1,0,.123-.123.15-.326.15-.57,0-1.18-.041-1.425-.041s-.909.041-1.343.041c-.135,0-.243-.027-.243-.15,0-.067.081-.1.216-.1a1.734,1.734,0,0,0,.407-.041c.38-.082.489-.613.556-1.076Z" transform="translate(-306.359 -195.716)" fill="#1a1718"/>
      <path id="Path_101984" data-name="Path 101984" d="M359.559,219.692c-.068,0-.081.014-.109.082l-.638,1.553a2.111,2.111,0,0,0-.175.708c0,.2.108.327.474.327h.176c.15,0,.176.055.176.123,0,.1-.067.123-.189.123-.394,0-.95-.041-1.33-.041-.122,0-.76.041-1.384.041-.149,0-.217-.027-.217-.123a.118.118,0,0,1,.135-.123c.109,0,.244-.013.353-.013.542-.082.746-.437.99-1.022l3.12-7.289c.135-.327.231-.464.353-.464.176,0,.231.109.353.368.285.641,2.28,5.382,3.039,7.14.462,1.05.8,1.2,1.018,1.24a2.744,2.744,0,0,0,.448.041c.108,0,.163.041.163.123s-.068.123-.516.123c-.42,0-1.288,0-2.292-.027-.217-.014-.354-.014-.354-.1s.028-.109.15-.123a.182.182,0,0,0,.109-.258l-.923-2.33a.113.113,0,0,0-.122-.082Zm2.55-.641c.055,0,.067-.026.055-.067l-1.126-2.944c-.015-.041-.027-.109-.056-.109s-.054.068-.067.109l-1.153,2.929c-.027.056,0,.082.04.082Z" transform="translate(-306.718 -195.758)" fill="#1a1718"/>
      <path id="Path_101985" data-name="Path 101985" d="M368.632,221.029c.027.9.176,1.171.407,1.253a1.989,1.989,0,0,0,.624.082c.135,0,.2.055.2.123,0,.1-.109.123-.272.123-.773,0-1.33-.041-1.546-.041-.109,0-.679.041-1.289.041-.163,0-.271-.013-.271-.123,0-.068.081-.123.19-.123a2.441,2.441,0,0,0,.542-.054c.313-.082.353-.4.366-1.4l.109-6.866c0-.233.081-.4.2-.4.149,0,.312.177.515.382.149.15,1.94,1.989,3.676,3.693.814.8,2.4,2.439,2.578,2.6h.055l-.123-5.15c-.013-.709-.122-.913-.406-1.022a2.021,2.021,0,0,0-.624-.067c-.15,0-.19-.056-.19-.123,0-.1.122-.11.3-.11.624,0,1.262.028,1.52.028.135,0,.583-.028,1.167-.028.163,0,.271.014.271.11,0,.067-.067.123-.2.123a1.208,1.208,0,0,0-.366.041c-.325.094-.421.3-.434.953l-.135,7.3c0,.26-.094.368-.19.368a.71.71,0,0,1-.489-.245c-.746-.694-2.238-2.126-3.486-3.338-1.3-1.253-2.564-2.657-2.795-2.861H368.5Z" transform="translate(-306.984 -195.76)" fill="#1a1718"/>
      <path id="Path_101986" data-name="Path 101986" d="M380.086,219.692c-.068,0-.082.014-.109.082l-.638,1.553a2.111,2.111,0,0,0-.175.708c0,.2.108.327.474.327h.176c.149,0,.176.055.176.123,0,.1-.068.123-.19.123-.393,0-.949-.041-1.329-.041-.122,0-.76.041-1.384.041-.15,0-.217-.027-.217-.123a.118.118,0,0,1,.135-.123c.109,0,.244-.013.353-.013.542-.082.746-.437.99-1.022l3.12-7.289c.135-.327.231-.464.353-.464.176,0,.231.109.353.368.285.641,2.28,5.382,3.038,7.14.463,1.05.8,1.2,1.018,1.24a2.762,2.762,0,0,0,.448.041c.109,0,.163.041.163.123s-.067.123-.515.123c-.421,0-1.288,0-2.292-.027-.217-.014-.353-.014-.353-.1s.028-.109.15-.123a.181.181,0,0,0,.108-.258l-.922-2.33a.113.113,0,0,0-.122-.082Zm2.55-.641c.055,0,.067-.026.055-.067l-1.127-2.944c-.014-.041-.026-.109-.055-.109s-.054.068-.067.109l-1.153,2.929c-.027.056,0,.082.04.082Z" transform="translate(-307.256 -195.758)" fill="#1a1718"/>
      <path id="Path_101987" data-name="Path 101987" d="M395.7,221.835c0,.314,0,.326-.15.408a7.14,7.14,0,0,1-2.917.519c-2.93,0-5.521-1.336-5.521-4.539a4.291,4.291,0,0,1,2.089-3.787,5.957,5.957,0,0,1,3.215-.75,13.376,13.376,0,0,1,2.116.192c.244.041.665.108.95.123.135.013.163.054.163.135a15.71,15.71,0,0,0-.082,1.908c0,.177-.067.259-.163.259s-.108-.055-.122-.15a1.549,1.549,0,0,0-.407-.954,3.694,3.694,0,0,0-2.591-.885,3.334,3.334,0,0,0-2.306.682,3.378,3.378,0,0,0-1.1,2.82,4.011,4.011,0,0,0,4.151,4.305,1.948,1.948,0,0,0,.841-.123.382.382,0,0,0,.231-.408v-1.062c0-.573,0-1.009-.014-1.363-.014-.4-.136-.517-.516-.626a2.07,2.07,0,0,0-.461-.041c-.109,0-.19-.055-.19-.123,0-.1.094-.11.257-.11.624,0,1.479.028,1.832.028.38,0,1-.028,1.4-.028.163,0,.244.015.244.11a.139.139,0,0,1-.15.123,1.56,1.56,0,0,0-.325.041c-.325.054-.448.217-.462.626-.013.354-.013.818-.013,1.39Z" transform="translate(-307.524 -195.761)" fill="#1a1718"/>
      <path id="Path_101988" data-name="Path 101988" d="M399.329,217.2c0-1.759,0-2.085-.014-2.453-.027-.4-.135-.518-.515-.626a2.138,2.138,0,0,0-.475-.041c-.122,0-.2-.041-.2-.123s.1-.11.272-.11c.624,0,1.384.028,1.723.028.38,0,3.026.013,3.256,0s.407-.055.5-.069a1.525,1.525,0,0,1,.19-.054c.068,0,.082.054.082.108a5.162,5.162,0,0,0-.1.749c-.014.123-.041.627-.067.764-.015.054-.041.19-.136.19s-.094-.055-.094-.149a1.089,1.089,0,0,0-.082-.423c-.094-.2-.19-.368-.787-.424-.2-.026-1.628-.054-1.873-.054-.054,0-.081.041-.081.109v2.862c0,.067.014.123.081.123.272,0,1.819,0,2.09-.028s.462-.054.57-.176c.094-.082.135-.151.19-.151a.11.11,0,0,1,.1.123c0,.069-.027.259-.1.844-.027.233-.055.7-.055.777s-.014.259-.122.259c-.082,0-.108-.041-.108-.1-.014-.123-.014-.273-.041-.422-.068-.233-.217-.409-.665-.45-.217-.028-1.574-.055-1.872-.055-.055,0-.068.055-.068.123v.926c0,.4-.014,1.376,0,1.717.027.791.393.968,1.615.968a3.229,3.229,0,0,0,1.126-.15c.3-.136.434-.382.516-.859.026-.123.054-.177.135-.177s.108.151.108.274a7.819,7.819,0,0,1-.163,1.28c-.081.3-.19.3-.638.3-.895,0-1.614-.015-2.2-.041s-1.031-.028-1.383-.028c-.136,0-.394.014-.679.014s-.583.027-.828.027c-.149,0-.231-.041-.231-.123,0-.054.041-.123.19-.123a1.7,1.7,0,0,0,.421-.041c.244-.054.313-.272.353-.613.055-.49.055-1.4.055-2.467Z" transform="translate(-307.813 -195.763)" fill="#1a1718"/>
      <path id="Path_101989" data-name="Path 101989" d="M407.789,213.888c.026-.191.135-.3.23-.3.123,0,.2.054.366.368l3.2,6.457,3.2-6.539c.1-.192.2-.286.312-.286s.231.123.272.368l1.086,7.152c.108.723.217,1.036.583,1.144a2.311,2.311,0,0,0,.678.109c.109,0,.19.041.19.11,0,.094-.135.135-.312.135-.3,0-1.994-.054-2.47-.082-.284-.013-.353-.068-.353-.135s.055-.1.136-.123.094-.164.054-.491l-.664-5.015h-.041l-2.564,5.179c-.272.544-.339.654-.475.654s-.284-.233-.474-.586c-.285-.532-1.235-2.3-1.37-2.63-.1-.218-.8-1.676-1.195-2.479h-.04l-.57,4.523a3.809,3.809,0,0,0-.041.545c0,.218.163.3.366.341a2.035,2.035,0,0,0,.421.054c.108,0,.19.055.19.11,0,.108-.108.135-.285.135-.5,0-1.044-.041-1.261-.041s-.8.041-1.18.041c-.122,0-.217-.027-.217-.135,0-.056.068-.11.19-.11a2.151,2.151,0,0,0,.366-.027c.325-.041.434-.5.489-.885Z" transform="translate(-308.008 -195.759)" fill="#1a1718"/>
      <path id="Path_101990" data-name="Path 101990" d="M420.219,217.2c0-1.759,0-2.085-.014-2.453-.027-.4-.135-.518-.515-.626a2.138,2.138,0,0,0-.475-.041c-.122,0-.2-.041-.2-.123s.1-.11.272-.11c.624,0,1.384.028,1.723.028.38,0,3.027.013,3.256,0s.407-.055.5-.069a1.535,1.535,0,0,1,.191-.054c.067,0,.081.054.081.108a5.162,5.162,0,0,0-.1.749c-.014.123-.04.627-.067.764-.014.054-.041.19-.136.19s-.094-.055-.094-.149a1.089,1.089,0,0,0-.082-.423c-.094-.2-.19-.368-.786-.424-.2-.026-1.628-.054-1.873-.054-.055,0-.082.041-.082.109v2.862c0,.067.014.123.082.123.271,0,1.818,0,2.09-.028s.461-.054.569-.176c.1-.082.136-.151.191-.151s.094.055.094.123-.027.259-.094.844c-.028.233-.055.7-.055.777s-.015.259-.123.259c-.081,0-.108-.041-.108-.1-.014-.123-.014-.273-.041-.422-.068-.233-.217-.409-.665-.45-.216-.028-1.573-.055-1.872-.055-.055,0-.068.055-.068.123v.926c0,.4-.014,1.376,0,1.717.027.791.393.968,1.615.968a3.226,3.226,0,0,0,1.126-.15c.3-.136.435-.382.516-.859.027-.123.054-.177.135-.177s.109.151.109.274a7.923,7.923,0,0,1-.163,1.28c-.082.3-.191.3-.639.3-.894,0-1.614-.015-2.2-.041s-1.031-.028-1.384-.028c-.136,0-.394.014-.679.014s-.583.027-.828.027c-.149,0-.23-.041-.23-.123,0-.054.04-.123.189-.123a1.708,1.708,0,0,0,.422-.041c.243-.054.312-.272.352-.613.055-.49.055-1.4.055-2.467Z" transform="translate(-308.36 -195.763)" fill="#1a1718"/>
      <path id="Path_101991" data-name="Path 101991" d="M428.708,221.029c.027.9.177,1.171.407,1.253a1.989,1.989,0,0,0,.624.082c.135,0,.2.055.2.123,0,.1-.109.123-.272.123-.773,0-1.329-.041-1.546-.041-.108,0-.679.041-1.289.041-.163,0-.271-.013-.271-.123,0-.068.082-.123.19-.123a2.441,2.441,0,0,0,.542-.054c.313-.082.353-.4.367-1.4l.108-6.866c0-.233.081-.4.2-.4.149,0,.312.177.515.382.15.15,1.941,1.989,3.677,3.693.814.8,2.4,2.439,2.577,2.6h.055l-.122-5.15c-.014-.709-.122-.913-.407-1.022a2.021,2.021,0,0,0-.624-.067c-.149,0-.19-.056-.19-.123,0-.1.122-.11.3-.11.623,0,1.262.028,1.519.028.135,0,.583-.028,1.168-.028.163,0,.271.014.271.11,0,.067-.067.123-.2.123a1.2,1.2,0,0,0-.366.041c-.326.094-.422.3-.434.953l-.135,7.3c0,.26-.1.368-.19.368a.711.711,0,0,1-.489-.245c-.746-.694-2.239-2.126-3.486-3.338-1.3-1.253-2.564-2.657-2.8-2.861h-.041Z" transform="translate(-308.558 -195.76)" fill="#1a1718"/>
      <path id="Path_101992" data-name="Path 101992" d="M441.259,214.559l-1.777.041c-.692.013-.977.094-1.154.354a1.4,1.4,0,0,0-.2.394c-.026.1-.054.151-.134.151s-.11-.069-.11-.192c0-.19.232-1.307.258-1.4.027-.149.068-.218.136-.218.094,0,.216.1.515.136a11.145,11.145,0,0,0,1.195.055h4.842a5.22,5.22,0,0,0,.814-.055c.19-.026.285-.055.326-.055.081,0,.1.069.1.245,0,.245-.028,1.1-.028,1.4-.013.123-.041.19-.108.19-.1,0-.122-.055-.136-.231l-.013-.123c-.027-.3-.34-.654-1.411-.668l-1.505-.027v4.687c0,1.063.013,1.977.067,2.48.041.327.108.545.462.6a4.3,4.3,0,0,0,.611.041c.135,0,.19.069.19.123,0,.082-.1.123-.231.123-.787,0-1.587-.041-1.926-.041-.272,0-1.086.041-1.56.041-.15,0-.231-.041-.231-.123,0-.054.04-.123.19-.123a1.633,1.633,0,0,0,.421-.041c.243-.054.312-.272.353-.613.055-.49.055-1.4.055-2.467Z" transform="translate(-308.855 -195.761)" fill="#1a1718"/>
    </g>
  </g>
</svg>
